#N canvas 15 22 552 489 10;
#X obj 20 80 cnv 15 303 117 empty empty empty 20 12 0 14 -122548 -66577
0;
#X obj 30 34 inlet;
#X obj 180 34 inlet;
#X obj 33 127 hsl 128 20 0 127 0 0 empty empty PAN -2 -8 0 10 -54094
-122548 -1 0 1;
#X floatatom 30 146 5 0 0 0 - - -;
#X obj 183 127 hsl 128 20 0 100 0 0 empty empty MOVEMENT-AMT -2 -8
0 10 -54094 -122548 -1 0 1;
#X floatatom 180 147 5 0 0 1 % - -;
#N canvas 30 6 634 751 panner 0;
#X obj 94 424 sqrt 0;
#X msg 193 563 1;
#X obj 94 549 t f b;
#X msg 399 563 1;
#X obj 294 549 t f b;
#X obj 94 525 line;
#X msg 94 501 \$1 500;
#X obj 294 525 line;
#X msg 294 501 \$1 500;
#X floatatom 312 448 5 0 0 0 - - -;
#X obj 294 424 sqrt 0;
#X floatatom 112 448 5 0 0 0 - - -;
#X obj 319 79 t b f;
#X obj 169 133 f;
#X text 192 167 lo-panVal;
#X text 354 167 hi-panVal;
#X obj 169 167 -;
#X obj 331 167 +;
#X obj 187 211 -;
#X obj 187 235 + 1;
#X obj 154 260 random;
#X obj 154 284 +;
#X obj 94 247 bng 15 100 50 0 empty empty empty 17 7 0 10 -262144 -1
-1;
#N canvas 0 22 274 210 lohi-tables 0;
#X obj 19 15 inlet;
#X obj 114 15 inlet;
#X msg 196 146 1;
#X obj 19 132 t f b;
#X msg 219 96 1;
#X obj 114 82 t f b;
#X obj 114 120 tabwrite hi-panVal;
#X obj 19 170 tabwrite ____________lo-panVal;
#X connect 0 0 3 0;
#X connect 1 0 5 0;
#X connect 2 0 7 1;
#X connect 3 0 7 0;
#X connect 3 1 2 0;
#X connect 4 0 6 1;
#X connect 5 0 6 0;
#X connect 5 1 4 0;
#X restore 250 211 pd lohi-tables;
#X text 194 260 randomRange: random()*((max-min)+1)+min;
#X obj 29 651 *~;
#X obj 44 525 line~;
#X obj 254 525 line~;
#X obj 239 651 *~;
#X obj 346 103 expr ($f1-0)*(64-0)/(100-0)+0;
#X obj 154 318 / 127;
#X msg 94 376 1;
#X obj 94 400 -;
#X obj 94 352 t b f;
#X obj 294 477 min 1;
#X obj 94 477 min 1;
#X obj 294 587 tabwrite amp-right;
#X obj 94 587 tabwrite amp-left;
#X obj 94 223 metro 400;
#X text 267 123 map: (inVal-inMin)*(outMax-outMin)/(inMax-inMin)+outMin
;
#X obj 319 15 inlet;
#X obj 29 715 outlet~;
#X obj 239 715 outlet~;
#X obj 169 15 inlet;
#X text 254 341 based on Matthew Davidson's 2013 Signal-controlled
granular oscillator: Beap Granular.;
#X obj 454 587 inlet~;
#X obj 534 587 inlet~;
#X msg 94 199 1;
#X obj 94 175 loadbang;
#N canvas 0 22 450 278 (subpatch) 0;
#X array ____________lo-panVal 1 float 3;
#A 0 32;
#X coords 0 -64 1 192 200 40 2 0 0;
#X restore 402 487 graph;
#N canvas 0 22 450 278 (subpatch) 0;
#X array hi-panVal 1 float 3;
#A 0 96;
#X coords 0 -64 1 192 200 40 2 0 0;
#X restore 402 487 graph;
#X obj 402 487 cnv 15 200 40 empty empty empty 20 12 0 14 -228856 -66577
0;
#X text 382 433 0;
#X text 382 406 1;
#X obj 392 407 cnv 15 100 40 empty empty empty 20 12 0 14 -228856 -66577
0;
#N canvas 0 22 450 278 (subpatch) 0;
#X array amp-left 1 float 3;
#A 0 0.730596;
#X coords 0 1 1 0 100 40 2 0 0;
#X restore 392 407 graph;
#X obj 512 407 cnv 15 100 40 empty empty empty 20 12 0 14 -228856 -66577
0;
#N canvas 0 22 450 278 (subpatch) 0;
#X array amp-right 1 float 3;
#A 0 0.664699;
#X coords 0 1 1 0 100 40 2 0 0;
#X restore 512 407 graph;
#X connect 0 0 11 0;
#X connect 0 0 35 0;
#X connect 1 0 37 1;
#X connect 2 0 37 0;
#X connect 2 1 1 0;
#X connect 3 0 36 1;
#X connect 4 0 36 0;
#X connect 4 1 3 0;
#X connect 5 0 2 0;
#X connect 6 0 5 0;
#X connect 6 0 26 0;
#X connect 7 0 4 0;
#X connect 8 0 7 0;
#X connect 8 0 27 0;
#X connect 10 0 9 0;
#X connect 10 0 34 0;
#X connect 12 0 13 0;
#X connect 12 1 29 0;
#X connect 13 0 16 0;
#X connect 13 0 17 0;
#X connect 16 0 18 1;
#X connect 16 0 21 1;
#X connect 16 0 23 0;
#X connect 17 0 18 0;
#X connect 17 0 23 1;
#X connect 18 0 19 0;
#X connect 19 0 20 1;
#X connect 20 0 21 0;
#X connect 21 0 30 0;
#X connect 22 0 20 0;
#X connect 25 0 41 0;
#X connect 26 0 25 1;
#X connect 27 0 28 1;
#X connect 28 0 42 0;
#X connect 29 0 16 1;
#X connect 29 0 17 1;
#X connect 30 0 10 0;
#X connect 30 0 33 0;
#X connect 31 0 32 0;
#X connect 32 0 0 0;
#X connect 33 0 31 0;
#X connect 33 1 32 1;
#X connect 34 0 8 0;
#X connect 35 0 6 0;
#X connect 38 0 22 0;
#X connect 40 0 12 0;
#X connect 43 0 13 0;
#X connect 45 0 25 0;
#X connect 46 0 28 0;
#X connect 47 0 38 0;
#X connect 48 0 47 0;
#X restore 30 271 pd panner;
#X f 75;
#X obj 30 305 outlet~;
#X obj 477 305 outlet~;
#X obj 328 237 inlet~;
#X obj 477 237 inlet~;
#X text 21 183 LEFT~;
#X text 281 183 RIGHT~;
#X text 20 80 PAN(0-127);
#X text 119 80 M(0-100);
#X text 206 80 IN-L;
#X text 294 80 IN-R;
#X obj 30 24 cnv 10 34 10 empty empty empty 8 12 0 14 -258113 -66577
0;
#X obj 180 24 cnv 10 34 10 empty empty empty 8 12 0 14 -258113 -66577
0;
#X obj 328 227 cnv 10 40 10 empty empty empty 8 12 0 14 -258113 -66577
0;
#X obj 477 227 cnv 10 40 10 empty empty empty 8 12 0 14 -258113 -66577
0;
#X obj 477 321 cnv 10 46 10 empty empty empty 8 12 0 14 -258113 -66577
0;
#X obj 30 321 cnv 10 46 10 empty empty empty 8 12 0 14 -258113 -66577
0;
#X text 27 426 Signal-controlled granular oscillator;
#X text 27 366 panner;
#X text 27 381 Isaac Medina \, 2019;
#X text 27 396 ----------------;
#X text 27 411 Based on Matthew Davidson's;
#X text 27 441 Beap Granular \, 2013;
#X obj 349 79 loadbang;
#X msg 349 113 64;
#X msg 438 113 50;
#X connect 1 0 3 0;
#X connect 2 0 5 0;
#X connect 3 0 4 0;
#X connect 3 0 7 0;
#X connect 5 0 6 0;
#X connect 5 0 7 1;
#X connect 7 0 8 0;
#X connect 7 1 9 0;
#X connect 10 0 7 2;
#X connect 11 0 7 3;
#X connect 30 0 31 0;
#X connect 30 0 32 0;
#X connect 31 0 3 0;
#X connect 32 0 5 0;
#X coords 0 -1 1 1 303 117 1 20 80;
