#N canvas 268 174 357 256 10;
#X obj 151 218 dac~ 1 2;
#X floatatom 26 50 5 0 127 0 - - -;
#X floatatom 124 50 5 0 100 0 - - -;
#N canvas 600 0 508 707 fmDrone 0;
#X obj 187 468 bng 15 250 50 0 empty empty empty 17 7 0 10 -262144
-1 -1;
#X msg 187 492 0;
#X msg 57 491 0.25;
#X obj 36 421 +~;
#X obj 224 346 random 127;
#X obj 224 262 bng 15 300 50 0 empty empty empty 17 7 0 10 -262144
-1 -1;
#X obj 166 421 +~;
#X floatatom 251 236 5 0 0 0 - - -;
#X obj 51 363 osc~ 90;
#X obj 36 297 osc~;
#X obj 166 298 osc~;
#X obj 36 324 *~ 24;
#X obj 166 324 *~ 20;
#X obj 224 210 spigot 0;
#X obj 269 187 tgl 15 0 empty empty empty 17 7 0 10 -262144 -1 -1 0
1;
#X obj 317 564 line~;
#X msg 317 339 0.5;
#X obj 317 316 bng 15 250 50 0 empty empty empty 17 7 0 10 -262144
-1 -1;
#X text 295 366 att;
#X text 398 367 rel;
#X obj 224 67 metro 4000;
#X obj 224 373 * 200;
#X obj 420 366 pack 0 1000;
#X obj 269 139 moses 60;
#X obj 269 115 random 100;
#X msg 269 163 0;
#X msg 314 163 1;
#X obj 224 91 t b b;
#X obj 224 292 delay 900;
#X obj 317 366 pack 0 1700;
#X obj 36 515 osc~;
#X obj 166 516 osc~;
#X obj 187 444 loadbang;
#X obj 166 618 *~;
#X obj 36 618 *~;
#X obj 46 564 rev2~ 95 85 850 10;
#X obj 176 565 rev2~ 95 85 850 10;
#X obj 101 540 hip~ 3000;
#X obj 101 492 noise~;
#X obj 101 516 *~ 0.02;
#X text 229 114 decide;
#X text 322 139 % 0f 0;
#X obj 51 387 *~;
#X obj 36 540 lop~ 1100;
#X obj 166 540 lop~ 1100;
#X obj 36 662 outlet~;
#X obj 166 662 outlet~;
#X obj 224 19 loadbang;
#X msg 224 43 1;
#X connect 0 0 1 0;
#X connect 0 0 2 0;
#X connect 1 0 31 1;
#X connect 2 0 30 1;
#X connect 3 0 30 0;
#X connect 4 0 21 0;
#X connect 5 0 22 0;
#X connect 5 0 28 0;
#X connect 6 0 31 0;
#X connect 7 0 21 1;
#X connect 8 0 42 0;
#X connect 9 0 11 0;
#X connect 10 0 12 0;
#X connect 11 0 3 0;
#X connect 12 0 6 0;
#X connect 13 0 5 0;
#X connect 14 0 13 1;
#X connect 15 0 34 1;
#X connect 15 0 33 1;
#X connect 16 0 29 0;
#X connect 17 0 16 0;
#X connect 20 0 27 0;
#X connect 21 0 42 1;
#X connect 22 0 15 0;
#X connect 23 0 25 0;
#X connect 23 1 26 0;
#X connect 24 0 23 0;
#X connect 25 0 14 0;
#X connect 26 0 14 0;
#X connect 27 0 13 0;
#X connect 27 1 24 0;
#X connect 28 0 17 0;
#X connect 28 0 4 0;
#X connect 29 0 15 0;
#X connect 30 0 43 0;
#X connect 31 0 44 0;
#X connect 32 0 0 0;
#X connect 33 0 46 0;
#X connect 34 0 45 0;
#X connect 35 0 34 0;
#X connect 36 1 33 0;
#X connect 37 0 34 0;
#X connect 37 0 33 0;
#X connect 38 0 39 0;
#X connect 39 0 37 0;
#X connect 42 0 3 1;
#X connect 42 0 6 1;
#X connect 43 0 35 0;
#X connect 43 0 34 0;
#X connect 44 0 36 0;
#X connect 44 0 33 0;
#X connect 47 0 48 0;
#X connect 48 0 20 0;
#X restore 265 39 pd fmDrone;
#X obj 26 73 panner;
#X connect 1 0 4 0;
#X connect 2 0 4 1;
#X connect 3 0 4 2;
#X connect 3 1 4 3;
#X connect 4 0 0 1;
#X connect 4 1 0 0;
