#N canvas 0 0 1280 778 10;
#X obj 426 215 treibsand;
#X obj 490 588 dac~ 1 2;
#X obj 426 190 osc~ 9;
#X floatatom 462 170 5 0 0 1 Hz. - -;
#X obj 429 157 hsl 63 15 0 100 0 0 empty empty FREQ -2 -8 0 10 -54094
-122548 -1 0 1;
#X obj 490 453 panner;
#X msg 546 160 read -resize /Users/Myller/Desktop/mnlgKickDriveDist3.wav
treibsand;
#X connect 0 0 5 2;
#X connect 0 1 5 3;
#X connect 2 0 0 0;
#X connect 4 0 3 0;
#X connect 4 0 2 0;
#X connect 5 0 1 0;
#X connect 5 1 1 1;
#X connect 6 0 0 1;
