#N canvas 0 22 1265 756 10;
#X obj 177 765 expr ((0+(1000-0)*((1000-0)*exp(-1*(127-0)*log(1.06))*exp($f1*log(1.06))))/1000)
, f 80;
#X obj 177 875 expr ($f1-0)*($f3-$f2)/(1000-0)+$f2;
#X floatatom 187 899 10 0 0 0 - - -;
#X floatatom 294 789 10 0 0 0 outMin - -;
#X floatatom 429 789 10 0 0 0 outMax - -;
#X obj 294 851 min;
#N canvas 218 129 284 479 gleichzeitig 0;
#X floatatom 86 90 5 0 0 0 - - -;
#X floatatom 177 90 5 0 0 0 - - -;
#X obj 71 163 f;
#X obj 71 187 t f b;
#X obj 189 221 f;
#X floatatom 71 253 5 0 0 0 - - -;
#X floatatom 189 255 5 0 0 0 - - -;
#X obj 177 129 t b f;
#X obj 21 207 t f b;
#X obj 86 26 inlet;
#X obj 177 26 inlet;
#X obj 71 318 outlet;
#X obj 189 318 outlet;
#X text 19 411 Isaac Medina \, 2019;
#X text 18 381 Synchronizes and outputs a set of inputs;
#X text 19 396 when any input is received.;
#X text 19 441 Based on Max/MSP's [bondo];
#X text 19 426 --------------------------;
#X text 18 366 [gleichzeitig];
#X connect 0 0 2 1;
#X connect 0 0 8 0;
#X connect 1 0 7 0;
#X connect 2 0 3 0;
#X connect 3 0 5 0;
#X connect 3 1 4 0;
#X connect 4 0 6 0;
#X connect 5 0 11 0;
#X connect 6 0 12 0;
#X connect 7 0 2 0;
#X connect 7 1 4 1;
#X connect 8 0 5 0;
#X connect 8 1 4 0;
#X connect 9 0 0 0;
#X connect 10 0 1 0;
#X restore 294 812 pd gleichzeitig;
#X f 23;
#X obj 414 851 max;
#X obj 64 909 f;
#X obj 177 707 t b b;
#X obj 177 684 bng 15 250 50 0 empty empty empty 17 7 0 10 -262144
-1 -1;
#X obj 64 875 t b f;
#X obj 177 741 random 127;
#N canvas 0 22 450 278 (subpatch) 0;
#X array WINDOW-DURATION 63 float 1;
#A 0 0 0 134.568 166.064 130.343 134.026 155.685 125.619 153.948 242.21
125.162 125.29 223.412 128.162 198.539 135.75 130.663 125.656 127.363
127.363 125.23 126.666 126.174 166.064 126.572 126.399 128.352 137.079
129.755 134.568 142.135 126.174 128.162 323.023 129.486 157.526 323.023
126.045 186.745 127.655 125.436 135.142 190.449 125.619 126.666 235.575
129.755 135.142 134.026 134.568 127.655 127.983 155.685 168.528 134.026
134.568 163.739 125.307 125.307 127.814 129.486 127.229 150.764;
#X coords 0 700 62 -700 100 70 1 0 0;
#X restore 257 914 graph;
#X obj 297 517 hsl 128 20 0 500 0 0 empty empty WINDOW-DURATION -2
-8 0 10 -54094 -122548 -1 6350 1;
#X obj 420 557 hsl 128 20 0 100 0 0 empty empty RANDOMNESS -2 -8 0
10 -54094 -122548 -1 6350 1;
#X obj 294 638 f;
#X obj 417 605 t b f;
#X obj 444 638 expr ($f1-0)*(250-0)/(100-0)+0;
#X obj 429 672 + 1;
#X obj 294 672 - 1;
#X floatatom 294 696 10 0 0 0 lo-dur - -;
#X floatatom 429 696 10 0 0 0 hi-dur - -;
#X floatatom 427 585 5 0 0 1 % - -;
#X obj 103 745 + 1;
#X obj 136 827 f;
#X obj 103 769 t f f;
#X obj 64 841 float 0;
#X obj 103 793 sel 63;
#X msg 103 817 0;
#X obj 64 933 tabwrite WINDOW-DURATION;
#X floatatom 967 930 10 0 0 0 - - -;
#X floatatom 1074 820 10 0 0 0 outMin - -;
#X floatatom 1209 820 10 0 0 0 outMax - -;
#X obj 1074 882 min;
#N canvas 218 129 284 479 gleichzeitig 0;
#X floatatom 86 90 5 0 0 0 - - -;
#X floatatom 177 90 5 0 0 0 - - -;
#X obj 71 163 f;
#X obj 71 187 t f b;
#X obj 189 221 f;
#X floatatom 71 253 5 0 0 0 - - -;
#X floatatom 189 255 5 0 0 0 - - -;
#X obj 177 129 t b f;
#X obj 21 207 t f b;
#X obj 86 26 inlet;
#X obj 177 26 inlet;
#X obj 71 318 outlet;
#X obj 189 318 outlet;
#X text 19 411 Isaac Medina \, 2019;
#X text 18 381 Synchronizes and outputs a set of inputs;
#X text 19 396 when any input is received.;
#X text 19 441 Based on Max/MSP's [bondo];
#X text 19 426 --------------------------;
#X text 18 366 [gleichzeitig];
#X connect 0 0 2 1;
#X connect 0 0 8 0;
#X connect 1 0 7 0;
#X connect 2 0 3 0;
#X connect 3 0 5 0;
#X connect 3 1 4 0;
#X connect 4 0 6 0;
#X connect 5 0 11 0;
#X connect 6 0 12 0;
#X connect 7 0 2 0;
#X connect 7 1 4 1;
#X connect 8 0 5 0;
#X connect 8 1 4 0;
#X connect 9 0 0 0;
#X connect 10 0 1 0;
#X restore 1074 843 pd gleichzeitig;
#X f 23;
#X obj 1194 882 max;
#X obj 844 940 f;
#X obj 957 728 t b b;
#X obj 957 705 bng 15 250 50 0 empty empty empty 17 7 0 10 -262144
-1 -1;
#X obj 726 521 tgl 15 0 empty empty empty 17 7 0 10 -262144 -1 -1 1
1;
#X obj 844 906 t b f;
#N canvas 0 22 450 278 (subpatch) 0;
#X array LOCATION 63 float 1;
#A 0 0 0 0 0 0 0 0 0 0 0 0 0 0 0 0 0 0 0 0 0 0 0 0 0 0 0 0 0 0 0 0
0 0 0 0 0 0 0 0 0 0 0 0 0 0 0 0 0 0 0 0 0 0 0 0 0 0 0 0 0 0 0 0;
#X coords 0 2000 62 -2000 100 70 1 0 0;
#X restore 1037 945 graph;
#X obj 1146 316 hsl 128 20 -5 5 0 0 empty empty POSITION -2 -8 0 10
-54094 -122548 -1 6350 1;
#X obj 1200 407 hsl 128 20 0 5 0 0 empty empty WIDTH -2 -8 0 10 -54094
-122548 -1 6350 1;
#X obj 1074 500 f;
#X obj 1197 455 t b f;
#X obj 1209 581 + 1;
#X obj 1074 582 - 1;
#X floatatom 1207 435 5 0 0 1 - - -;
#X obj 883 776 + 1;
#X obj 916 848 f;
#X obj 883 800 t f f;
#X obj 844 872 float 0;
#X obj 883 824 sel 63;
#X msg 883 848 0;
#X obj 844 964 tabwrite LOCATION;
#X floatatom 304 545 5 0 0 1 ms - -;
#X obj 1224 558 expr ($f1-0)*(499-0)/(5-0)+0;
#X obj 1074 524 expr ($f1-(-5))*(999-0)/(5-(-5))+0;
#X obj 1074 646 * 0.001;
#X obj 1209 646 * 0.001;
#N canvas 218 129 284 479 gleichzeitig 0;
#X floatatom 86 90 5 0 0 0 - - -;
#X floatatom 177 90 5 0 0 0 - - -;
#X obj 71 163 f;
#X obj 71 187 t f b;
#X obj 189 221 f;
#X floatatom 71 253 5 0 0 0 - - -;
#X floatatom 189 255 5 0 0 0 - - -;
#X obj 177 129 t b f;
#X obj 21 207 t f b;
#X obj 86 26 inlet;
#X obj 177 26 inlet;
#X obj 71 318 outlet;
#X obj 189 318 outlet;
#X text 19 411 Isaac Medina \, 2019;
#X text 18 381 Synchronizes and outputs a set of inputs;
#X text 19 396 when any input is received.;
#X text 19 441 Based on Max/MSP's [bondo];
#X text 19 426 --------------------------;
#X text 18 366 [gleichzeitig];
#X connect 0 0 2 1;
#X connect 0 0 8 0;
#X connect 1 0 7 0;
#X connect 2 0 3 0;
#X connect 3 0 5 0;
#X connect 3 1 4 0;
#X connect 4 0 6 0;
#X connect 5 0 11 0;
#X connect 6 0 12 0;
#X connect 7 0 2 0;
#X connect 7 1 4 1;
#X connect 8 0 5 0;
#X connect 8 1 4 0;
#X connect 9 0 0 0;
#X connect 10 0 1 0;
#X restore 1074 678 pd gleichzeitig;
#N canvas 218 129 284 479 gleichzeitig 0;
#X floatatom 86 90 5 0 0 0 - - -;
#X floatatom 177 90 5 0 0 0 - - -;
#X obj 71 163 f;
#X obj 71 187 t f b;
#X obj 189 221 f;
#X floatatom 71 253 5 0 0 0 - - -;
#X floatatom 189 255 5 0 0 0 - - -;
#X obj 177 129 t b f;
#X obj 21 207 t f b;
#X obj 86 26 inlet;
#X obj 177 26 inlet;
#X obj 71 318 outlet;
#X obj 189 318 outlet;
#X text 19 411 Isaac Medina \, 2019;
#X text 18 381 Synchronizes and outputs a set of inputs;
#X text 19 396 when any input is received.;
#X text 19 441 Based on Max/MSP's [bondo];
#X text 19 426 --------------------------;
#X text 18 366 [gleichzeitig];
#X connect 0 0 2 1;
#X connect 0 0 8 0;
#X connect 1 0 7 0;
#X connect 2 0 3 0;
#X connect 3 0 5 0;
#X connect 3 1 4 0;
#X connect 4 0 6 0;
#X connect 5 0 11 0;
#X connect 6 0 12 0;
#X connect 7 0 2 0;
#X connect 7 1 4 1;
#X connect 8 0 5 0;
#X connect 8 1 4 0;
#X connect 9 0 0 0;
#X connect 10 0 1 0;
#X restore 1209 678 pd gleichzeitig;
#X obj 1074 702 * 1;
#X obj 1209 702 * 1;
#X floatatom 1074 726 10 0 0 0 lo-loc - -;
#X floatatom 1209 726 10 0 0 0 hi-loc - -;
#X obj 1074 456 snapshot~;
#X msg 726 428 1;
#X obj 726 404 loadbang;
#X floatatom 1153 344 5 0 0 0 - - -;
#X msg 1143 364 \$1 20;
#X obj 1143 388 line~;
#X obj 1074 432 +~, f 12;
#X obj 1074 373 *~;
#X msg 1089 325 \$1 20;
#X obj 1089 349 line~;
#X floatatom 1084 480 5 0 0 0 - - -;
#X obj 1092 258 hsl 63 15 -100 100 0 0 empty empty CV-AMT -2 -8 0 10
-54094 -122548 -1 3100 1;
#X floatatom 1099 281 5 0 0 0 - - -;
#X obj 1089 301 * 0.01;
#X obj 957 906 expr ($f1-0)*($f3-$f2)/(1000-0)+$f2;
#X obj 1074 101 inlet~;
#X obj 1004 442 metro 90;
#X obj 957 771 random 127;
#X obj 957 795 expr ((0+(1000-0)*((1000-0)*exp(-1*(127-0)*log(1.06))*exp($f1*log(1.06))))/1000)
, f 80;
#X text 1172 906 [map];
#X text 392 875 [map];
#X text 1397 558 [map];
#X text 1283 524 [map];
#X text 629 638 [map];
#X text 662 765 [exponentialScale];
#X text 1442 795 [exponentialScale];
#X text 2415 1117 comment;
#X text 955 1091 exp(x) = e^x = 2.18^x = inverse function of natural
log;
#X text 955 1044 exponentialScale -> ((outMin+(outMax-outMin)*((outMax-outMin)*exp(-1*(inMax-inMin)*log(power))*exp(inVal*log(power))))/outMax)
;
#X text 955 1029 map -> (inVal-inMin)*(outMax-outMin)/(inMax-inMin)+outMin
;
#X text 175 998 map -> (inVal-inMin)*(outMax-outMin)/(inMax-inMin)+outMin
;
#X text 175 1013 exponentialScale -> ((outMin+(outMax-outMin)*((outMax-outMin)*exp(-1*(inMax-inMin)*log(power))*exp(inVal*log(power))))/outMax)
;
#X text 175 1060 exp(x) = e^x = 2.18^x = inverse function of natural
log;
#X obj 1541 197 soundfiler;
#N canvas 0 22 450 278 (subpatch) 0;
#X array treibsand 10547 float 2;
#X coords 0 1 10547 -1 200 140 2 0 0;
#X restore 1333 111 graph;
#N canvas 0 22 186 178 fileLocator 0;
#X obj 13 63 openpanel;
#X obj 13 38 bng 15 250 50 0 empty empty empty 0 -6 0 8 -262144 -1
-1;
#X msg 23 90 read -resize \$1 bellus1;
#X obj 13 117 print extension;
#X obj 23 144 outlet;
#X obj 13 11 inlet;
#X connect 0 0 2 0;
#X connect 0 0 3 0;
#X connect 1 0 0 0;
#X connect 2 0 4 0;
#X connect 5 0 1 0;
#X restore 1920 173 pd fileLocator;
#X obj 957 964 s location;
#X obj 177 969 s duration;
#X obj 1966 429 line~;
#X obj 1939 371 t l l;
#X obj 2036 289 * 1;
#X obj 2021 313 + 0;
#X obj 1939 255 r location;
#X obj 2062 255 r duration;
#X obj 1966 395 list split 2;
#X obj 1876 395 list split 2;
#X obj 1660 701 phasor~ 1;
#X obj 1756 825 -~ 0.5;
#X obj 1756 849 *~ 0.5;
#X obj 1756 873 cos~;
#X floatatom 1840 594 5 0 0 0 CHUNK-SIZE(ms) - -;
#X floatatom 1660 678 5 0 0 0 - - -;
#X text 2005 427 readPoint;
#X obj 1102 614 hsl 100 20 -100 1000 0 0 lo-loc-map empty empty -2
-8 0 10 -54094 -122548 -1 3150 1;
#X obj 1102 594 hsl 100 20 -100 1500 0 0 hi-loc-map empty empty -2
-8 0 10 -54094 -122548 -1 5253 1;
#X obj 1541 269 s buffLen;
#X obj 1296 654 r buffLen;
#X obj 1840 617 * 0.001;
#X obj 1609 753 samphold~;
#X obj 1609 777 *~, f 13;
#X obj 1609 801 +~, f 15;
#X obj 1609 849 +~ 1;
#X obj 1609 907 *~, f 25;
#X obj 1609 941 +~, f 39;
#X obj 1840 753 samphold~;
#X obj 1840 777 *~, f 13;
#X obj 1840 801 +~, f 15;
#X obj 1840 849 +~ 1;
#X obj 1840 907 *~, f 25;
#X obj 1987 825 -~ 0.5;
#X obj 1987 849 *~ 0.5;
#X obj 1987 873 cos~;
#X obj 1987 715 +~ 0.5;
#X obj 1987 739 wrap~;
#X obj 1927 600 /~;
#X obj 1927 624 phasor~;
#X obj 1927 648 *~, f 7;
#X obj 2179 631 t b f;
#X obj 2268 630 t b f;
#X obj 2118 664 expr (pow(2 \, $f1/120)-$f3)/$f2;
#X obj 2288 418 snapshot~;
#X obj 2288 394 metro 100;
#X floatatom 2288 442 5 0 0 0 - - -;
#X floatatom 2118 601 5 0 0 0 TRANSPOSITION - -;
#X obj 2288 346 loadbang;
#X msg 2288 370 1;
#X obj 1609 825 *~ 44100;
#X obj 1840 825 *~ 44100;
#X obj 1541 221 / 44100;
#X obj 1541 245 / 0.001;
#X floatatom 1471 269 10 0 0 0 bufferLenght: - -;
#X obj 1927 546 *~ 0.01, f 9;
#X obj 2268 536 * 0.01;
#X floatatom 1927 523 5 0 0 0 PRECESSION(%) - -;
#X obj 1687 393 r duration;
#X obj 1769 509 * -1;
#X obj 1826 451 < 0;
#X obj 1769 485 spigot 0;
#X obj 1687 417 t f f, f 16;
#X obj 1687 485 spigot 0;
#X obj 1744 451 >= 0;
#X obj 1826 486 tgl 15 0 empty empty empty 17 7 0 10 -262144 -1 -1
0 1;
#X obj 1744 485 tgl 15 0 empty empty empty 17 7 0 10 -262144 -1 -1
1 1;
#X floatatom 753 534 5 0 0 0 - - -;
#X text 941 605 [map];
#X obj 726 581 random 9999;
#X obj 726 605 expr ($f1-0)*($f3-$f2)/(9999-0)+$f2;
#X floatatom 829 582 5 0 100 1 ms - -;
#X floatatom 933 582 5 101 500 1 ms - -;
#X obj 1939 347 pack 0 10 0 0, f 21;
#X obj 726 557 metro;
#X obj 2235 323 t b f;
#X obj 2139 371 t l l;
#X obj 2166 395 list split 2;
#X obj 2076 395 list split 2;
#X obj 2110 419 line~;
#X obj 2166 419 line;
#X floatatom 2166 443 5 0 0 0 - - -;
#X obj 2139 347 pack 0 0 1 0, f 21;
#X obj 1966 576 *~ 0.001;
#X obj 1609 1035 outlet~;
#X obj 1659 1035 outlet~;
#X obj 832 559 hsl 63 15 0 100 0 0 empty empty CLK-EVENT-MIN -2 -8
0 10 -54094 -122548 -1 0 1;
#X obj 936 559 hsl 63 15 101 500 0 0 empty empty CLK-EVENT-MAX -2 -8
0 10 -54094 -122548 -1 6200 1;
#X obj 1541 63 inlet;
#X obj 1014 606 s lo-loc-map;
#X obj 1219 605 s hi-loc-map;
#X obj 829 515 r granularGUI-1;
#X obj 934 515 r granularGUI-2;
#X obj 144 503 r granularGUI-3;
#X obj 144 543 r granularGUI-4;
#X obj 939 302 r granularGUI-5;
#X obj 939 393 r granularGUI-6;
#X obj 1074 91 cnv 10 40 10 empty empty empty 8 12 0 14 -258113 -66577
0;
#X obj 1541 53 cnv 10 34 10 empty empty empty 8 12 0 14 -258113 -66577
0;
#X obj 1609 1051 cnv 10 46 10 empty empty empty 8 12 0 14 -258113 -66577
0;
#X obj 1659 1051 cnv 10 46 10 empty empty empty 8 12 0 14 -258113 -66577
0;
#X obj 20 80 cnv 15 367 220 empty empty empty 20 12 0 14 -122548 -66577
0;
#X floatatom 169 198 5 0 0 1 % - -;
#X floatatom 30 198 5 0 0 1 ms - -;
#X floatatom 30 135 5 0 100 1 ms - -;
#X floatatom 128 135 5 101 500 1 ms - -;
#X obj 33 112 hsl 63 15 0 100 0 0 empty empty CLK-EVENT-MIN -2 -8 0
10 -54094 -122548 -1 0 1;
#X obj 131 112 hsl 63 15 101 500 0 0 empty empty CLK-EVENT-MAX -2 -8
0 10 -54094 -122548 -1 6200 1;
#X floatatom 169 258 5 0 0 1 - - -;
#X floatatom 30 258 5 0 0 0 - - -;
#X floatatom 308 258 5 0 0 1 % - -;
#X obj 33 180 hsl 128 20 0 500 0 0 empty empty WINDOW-DURATION -2 -8
0 10 -54094 -122548 -1 6350 1;
#X obj 172 180 hsl 128 20 0 100 0 0 empty empty RANDOMNESS -2 -8 0
10 -54094 -122548 -1 6350 1;
#X obj 311 245 hsl 63 15 -100 100 0 0 empty empty CV-AMT -2 -8 0 10
-54094 -122548 -1 3100 1;
#X obj 33 240 hsl 128 20 -5 5 0 0 empty empty POSITION -2 -8 0 10 -54094
-122548 -1 6350 1;
#X obj 172 240 hsl 128 20 0 5 0 0 empty empty WIDTH -2 -8 0 10 -54094
-122548 -1 6350 1;
#X obj 274 130 hsl 100 20 -500 1000 0 0 empty lo-loc-map empty -2 -8
0 10 -54094 -122548 -1 4950 1;
#X obj 274 110 hsl 100 20 -100 1500 0 0 empty hi-loc-map empty -2 -8
0 10 -54094 -122548 -1 5253 1;
#X obj 30 350 s granularGUI-1;
#X obj 128 350 s granularGUI-2;
#X obj 30 370 s granularGUI-3;
#X obj 169 370 s granularGUI-4;
#X obj 30 390 s granularGUI-5;
#X obj 169 390 s granularGUI-6;
#X text 316 80 LOAD-SAMPLE;
#X text 20 286 LEFT~;
#X text 346 286 RIGHT~;
#X text 418 170 Signal-controlled granular oscillator;
#X text 418 125 Isaac Medina \, 2019;
#X text 418 140 ----------------;
#X text 418 155 Based on Matthew Davidson's;
#X text 418 185 Beap Granular \, 2013;
#X text 418 110 treibsand;
#X text 418 200 & Miller Puckette's;
#X text 418 215 B14.sample.rockafella \, v 0.37;
#X msg 50 42 250;
#X msg 169 42 50;
#X msg 128 22 500;
#X msg 30 22 0;
#X msg 60 62 0;
#X msg 189 62 2.5;
#X msg 308 62 0;
#X obj 308 8 loadbang;
#X text 20 80 LFO~;
#X obj 1551 149 loadbang;
#X msg 1551 173 read -resize /Users/Myller/Desktop/voice.wav treibsand
;
#X msg 1621 133 read -resize /Users/Myller/Desktop/mnlgKickDriveDist3.wav
treibsand;
#X obj 1840 873 tabread4~ treibsand;
#X obj 1609 873 tabread4~ treibsand;
#X connect 0 0 1 0;
#X connect 1 0 2 0;
#X connect 1 0 8 1;
#X connect 1 0 105 0;
#X connect 3 0 6 0;
#X connect 4 0 6 1;
#X connect 5 0 1 1;
#X connect 6 0 5 0;
#X connect 6 0 7 0;
#X connect 6 1 5 1;
#X connect 6 1 7 1;
#X connect 7 0 1 2;
#X connect 8 0 30 0;
#X connect 9 0 12 0;
#X connect 9 1 27 0;
#X connect 10 0 9 0;
#X connect 11 0 8 0;
#X connect 11 1 30 1;
#X connect 12 0 0 0;
#X connect 14 0 16 0;
#X connect 14 0 57 0;
#X connect 15 0 17 0;
#X connect 15 0 23 0;
#X connect 16 0 19 0;
#X connect 16 0 20 0;
#X connect 17 0 16 0;
#X connect 17 1 18 0;
#X connect 18 0 19 1;
#X connect 18 0 20 1;
#X connect 19 0 22 0;
#X connect 20 0 21 0;
#X connect 21 0 3 0;
#X connect 22 0 4 0;
#X connect 24 0 26 0;
#X connect 25 0 27 1;
#X connect 26 0 28 0;
#X connect 26 1 25 1;
#X connect 27 0 24 0;
#X connect 27 0 11 0;
#X connect 28 0 29 0;
#X connect 28 1 25 0;
#X connect 29 0 27 1;
#X connect 32 0 35 0;
#X connect 33 0 35 1;
#X connect 34 0 82 1;
#X connect 35 0 34 0;
#X connect 35 0 36 0;
#X connect 35 1 34 1;
#X connect 35 1 36 1;
#X connect 36 0 82 2;
#X connect 37 0 56 0;
#X connect 38 0 85 0;
#X connect 38 1 53 0;
#X connect 39 0 38 0;
#X connect 40 0 178 0;
#X connect 41 0 37 0;
#X connect 41 1 56 1;
#X connect 43 0 71 0;
#X connect 43 0 72 0;
#X connect 44 0 49 0;
#X connect 44 0 46 0;
#X connect 45 0 59 0;
#X connect 46 0 45 0;
#X connect 46 1 58 0;
#X connect 47 0 61 0;
#X connect 47 0 122 0;
#X connect 47 0 194 0;
#X connect 48 0 60 0;
#X connect 48 0 193 0;
#X connect 48 0 121 0;
#X connect 50 0 52 0;
#X connect 51 0 53 1;
#X connect 52 0 54 0;
#X connect 52 1 51 1;
#X connect 53 0 50 0;
#X connect 53 0 41 0;
#X connect 54 0 55 0;
#X connect 54 1 51 0;
#X connect 55 0 53 1;
#X connect 58 0 47 1;
#X connect 58 0 48 1;
#X connect 59 0 48 0;
#X connect 59 0 47 0;
#X connect 60 0 62 0;
#X connect 61 0 63 0;
#X connect 62 0 64 0;
#X connect 62 1 64 1;
#X connect 63 0 65 0;
#X connect 63 1 65 1;
#X connect 64 0 66 0;
#X connect 65 0 67 0;
#X connect 66 0 32 0;
#X connect 67 0 33 0;
#X connect 68 0 78 0;
#X connect 68 0 45 0;
#X connect 69 0 84 0;
#X connect 69 0 40 0;
#X connect 70 0 69 0;
#X connect 72 0 73 0;
#X connect 73 0 74 1;
#X connect 74 0 68 0;
#X connect 75 0 74 0;
#X connect 76 0 77 0;
#X connect 77 0 75 1;
#X connect 79 0 80 0;
#X connect 79 0 81 0;
#X connect 81 0 76 0;
#X connect 82 0 31 0;
#X connect 82 0 37 1;
#X connect 82 0 104 0;
#X connect 83 0 75 0;
#X connect 84 0 68 0;
#X connect 85 0 86 0;
#X connect 86 0 82 0;
#X connect 101 0 156 0;
#X connect 106 0 187 0;
#X connect 107 0 113 0;
#X connect 107 1 112 0;
#X connect 108 0 109 1;
#X connect 109 0 177 2;
#X connect 110 0 109 0;
#X connect 110 0 177 0;
#X connect 111 0 108 0;
#X connect 111 0 177 3;
#X connect 111 0 179 0;
#X connect 112 0 106 0;
#X connect 113 1 106 0;
#X connect 114 0 115 0;
#X connect 114 0 126 1;
#X connect 114 0 127 1;
#X connect 114 0 140 0;
#X connect 115 0 116 0;
#X connect 116 0 117 0;
#X connect 117 0 130 1;
#X connect 118 0 125 0;
#X connect 119 0 114 0;
#X connect 124 0 62 1;
#X connect 124 0 63 1;
#X connect 125 0 126 0;
#X connect 125 0 132 0;
#X connect 125 0 145 0;
#X connect 126 0 127 0;
#X connect 127 0 128 0;
#X connect 128 0 154 0;
#X connect 129 0 252 0;
#X connect 130 0 131 0;
#X connect 131 0 188 0;
#X connect 131 0 189 0;
#X connect 132 0 133 0;
#X connect 133 0 134 0;
#X connect 134 0 155 0;
#X connect 135 0 251 0;
#X connect 136 0 131 1;
#X connect 137 0 138 0;
#X connect 138 0 139 0;
#X connect 139 0 136 1;
#X connect 140 0 141 0;
#X connect 141 0 137 0;
#X connect 141 0 132 1;
#X connect 141 0 133 1;
#X connect 142 0 143 0;
#X connect 143 0 144 0;
#X connect 144 0 134 1;
#X connect 144 0 128 1;
#X connect 145 0 147 0;
#X connect 145 1 147 1;
#X connect 146 0 147 0;
#X connect 146 1 147 2;
#X connect 147 0 119 0;
#X connect 148 0 150 0;
#X connect 149 0 148 0;
#X connect 151 0 147 0;
#X connect 152 0 153 0;
#X connect 153 0 149 0;
#X connect 154 0 129 0;
#X connect 155 0 135 0;
#X connect 156 0 157 0;
#X connect 157 0 123 0;
#X connect 157 0 158 0;
#X connect 159 0 142 0;
#X connect 160 0 146 0;
#X connect 161 0 160 0;
#X connect 161 0 159 0;
#X connect 162 0 166 0;
#X connect 163 0 118 0;
#X connect 163 0 161 0;
#X connect 164 0 165 1;
#X connect 164 0 169 0;
#X connect 165 0 163 0;
#X connect 166 0 165 0;
#X connect 166 0 167 0;
#X connect 166 1 164 0;
#X connect 166 1 168 0;
#X connect 167 0 118 0;
#X connect 167 0 161 0;
#X connect 168 0 167 1;
#X connect 168 0 170 0;
#X connect 171 0 178 1;
#X connect 173 0 174 0;
#X connect 174 0 171 0;
#X connect 175 0 174 1;
#X connect 176 0 174 2;
#X connect 177 0 107 0;
#X connect 178 0 173 0;
#X connect 178 0 10 0;
#X connect 178 0 39 0;
#X connect 179 0 186 0;
#X connect 179 1 186 3;
#X connect 180 0 182 0;
#X connect 180 1 181 0;
#X connect 181 0 183 0;
#X connect 181 0 184 0;
#X connect 182 1 183 0;
#X connect 182 1 184 0;
#X connect 184 0 185 0;
#X connect 186 0 180 0;
#X connect 187 0 142 1;
#X connect 187 0 144 1;
#X connect 190 0 175 0;
#X connect 191 0 176 0;
#X connect 192 0 101 0;
#X connect 195 0 190 0;
#X connect 196 0 191 0;
#X connect 197 0 14 0;
#X connect 198 0 15 0;
#X connect 199 0 43 0;
#X connect 200 0 44 0;
#X connect 210 0 208 0;
#X connect 210 0 222 0;
#X connect 211 0 209 0;
#X connect 211 0 223 0;
#X connect 215 0 207 0;
#X connect 215 0 224 0;
#X connect 216 0 206 0;
#X connect 216 0 225 0;
#X connect 217 0 214 0;
#X connect 217 0 79 0;
#X connect 218 0 213 0;
#X connect 218 0 226 0;
#X connect 219 0 212 0;
#X connect 219 0 227 0;
#X connect 239 0 215 0;
#X connect 240 0 216 0;
#X connect 241 0 211 0;
#X connect 242 0 210 0;
#X connect 243 0 218 0;
#X connect 244 0 219 0;
#X connect 245 0 217 0;
#X connect 246 0 242 0;
#X connect 246 0 245 0;
#X connect 246 0 244 0;
#X connect 246 0 243 0;
#X connect 246 0 241 0;
#X connect 246 0 240 0;
#X connect 246 0 239 0;
#X connect 248 0 249 0;
#X connect 251 0 136 0;
#X connect 252 0 130 0;
#X coords 0 -1 1 1 367 220 1 20 80;
